<svg id="Layer_1" enable-background="new 0 0 64 64" viewBox="0 0 64 64" xmlns="http://www.w3.org/2000/svg"><g><path d="m62 15.7h-4.9-50.2-4.9c-.3 0-.5.2-.5.5v22.4c0 .3.2.5.5.5h5.1 49.9 5c.3 0 .5-.2.5-.5v-22.4c0-.3-.2-.5-.5-.5zm-5.4 1v4.1h-49.2v-4.1zm-49 16.7h48.9v2.1h-48.9zm48.8-1h-48.8v-1.6h48.9v1.6zm-48.8 5.7v-1.6h48.9v1.6zm53.9 0h-4.1v-7.8c0-.3-.2-.5-.5-.5h-49.8c-.3 0-.5.2-.5.5v7.8h-4.1v-21.4h3.9v4.6c0 .3.2.5.5.5h50.1c.3 0 .5-.2.5-.5v-4.6h3.9v21.4z"/><path d="m36.7 27.6h-9.5c-.3 0-.5.2-.5.5s.2.5.5.5h9.5c.3 0 .5-.2.5-.5s-.2-.5-.5-.5z"/><path d="m54.5 27.7c-.1-.1-.4-.2-.5-.1-.1 0-.1.1-.2.1 0 .1-.1.1-.1.2v.2c0 .1 0 .3.1.3 0 .1.1.1.2.1h.2c.1 0 .3-.1.4-.2s.1-.2.1-.3 0-.1 0-.2c-.1 0-.2 0-.2-.1z"/><path d="m57.3 27.7c-.1-.1-.4-.2-.5-.1-.1 0-.1.1-.2.1-.1.1-.1.1-.1.2v.2c0 .1 0 .3.1.3 0 .1.1.1.2.1h.2c.1 0 .3-.1.3-.2.1-.1.2-.2.2-.3s0-.1 0-.2c-.1 0-.1 0-.2-.1z"/><path d="m14.6 41c-.3 0-.5.2-.5.5l-.1 6.3c0 .3.2.5.5.5.3 0 .5-.2.5-.5l.1-6.3c0-.3-.3-.5-.5-.5z"/><path d="m20.4 41c-.3 0-.5.2-.5.5l-.1 6.3c0 .3.2.5.5.5.3 0 .5-.2.5-.5l.1-6.3c0-.3-.2-.5-.5-.5z"/><path d="m26.2 41c-.3 0-.5.2-.5.5l-.1 6.3c0 .3.2.5.5.5.3 0 .5-.2.5-.5l.1-6.3c0-.3-.2-.5-.5-.5z"/><path d="m32.1 41c-.3 0-.5.2-.5.5l-.1 6.3c0 .3.2.5.5.5.3 0 .5-.2.5-.5l.1-6.3c0-.3-.3-.5-.5-.5z"/><path d="m37.9 41c-.3 0-.5.2-.5.5l-.1 6.3c0 .3.2.5.5.5.3 0 .5-.2.5-.5l.1-6.3c0-.3-.2-.5-.5-.5z"/><path d="m43.7 41c-.3 0-.5.2-.5.5l-.1 6.3c0 .3.2.5.5.5.3 0 .5-.2.5-.5l.1-6.3c0-.3-.2-.5-.5-.5z"/><path d="m49.6 41c-.3 0-.5.2-.5.5l-.1 6.3c0 .3.2.5.5.5.3 0 .5-.2.5-.5l.1-6.3c0-.3-.3-.5-.5-.5z"/><path d="m9.7 41c-.3 0-.5.2-.5.5 0 0 0 3.8-2.8 5.9-.2.2-.3.5-.1.7.1.1.2.2.4.2.1 0 .2 0 .3-.1 3.2-2.5 3.1-6.6 3.1-6.7.1-.3-.1-.5-.4-.5z"/><path d="m54.9 41.5c0-.3-.2-.5-.5-.5s-.5.2-.5.5c0 .2 0 4.3 3.1 6.7.1.1.2.1.3.1s.3-.1.4-.2c.2-.2.1-.5-.1-.7-2.7-2.1-2.7-5.9-2.7-5.9z"/></g></svg>