<svg id="Layer_1" enable-background="new 0 0 32 32" height="512" viewBox="0 0 32 32" width="512" xmlns="http://www.w3.org/2000/svg"><path d="m23.244 10.149h-6.294l5.447-6.323c.18-.209.157-.525-.053-.705-.208-.18-.524-.157-.705.053l-5.639 6.546-5.64-6.546c-.182-.209-.498-.232-.705-.053-.209.18-.233.496-.053.705l5.447 6.323h-6.293c-2.156 0-3.91 1.753-3.91 3.909v11.032c0 2.157 1.754 3.91 3.91 3.91h14.488c2.156 0 3.91-1.753 3.91-3.909v-11.032c0-2.156-1.754-3.91-3.91-3.91zm2.91 14.942c0 1.604-1.305 2.909-2.91 2.909h-14.488c-1.604 0-2.91-1.305-2.91-2.909v-11.032c0-1.604 1.305-2.909 2.91-2.909h14.488c1.604 0 2.91 1.305 2.91 2.909z"/><path d="m23.052 12.155h-14.104c-1.156 0-2.096.94-2.096 2.096v8.647c0 1.155.94 2.095 2.096 2.095h14.104c1.156 0 2.096-.94 2.096-2.095v-8.647c-.001-1.156-.94-2.096-2.096-2.096zm1.095 10.743c0 .604-.492 1.095-1.096 1.095h-14.103c-.604 0-1.096-.491-1.096-1.095v-8.647c0-.604.492-1.096 1.096-1.096h14.104c.604 0 1.096.492 1.096 1.096v8.647z"/><path d="m18.357 25.965h-8.885c-.276 0-.5.224-.5.5s.224.5.5.5h8.885c.276 0 .5-.224.5-.5s-.223-.5-.5-.5z"/><path d="m22.528 25.965h-2.221c-.276 0-.5.224-.5.5s.224.5.5.5h2.221c.276 0 .5-.224.5-.5s-.224-.5-.5-.5z"/></svg>