<?xml version="1.0" encoding="UTF-8" standalone="no"?>
<svg
   version="1.1"
   id="svg579"
   xml:space="preserve"
   width="682.66669"
   height="682.66669"
   viewBox="0 0 682.66669 682.66669"
   xmlns="http://www.w3.org/2000/svg"
   xmlns:svg="http://www.w3.org/2000/svg"><defs
     id="defs583"><clipPath
       clipPathUnits="userSpaceOnUse"
       id="clipPath597"><path
         d="M 0,512 H 512 V 0 H 0 Z"
         id="path595" /></clipPath></defs><g
     id="g585"
     transform="matrix(1.3333333,0,0,-1.3333333,0,682.66667)"><g
       id="g587"
       transform="translate(240.8262,275.1523)"><path
         d="M 0,0 H 30.348 V -140"
         style="fill:none;stroke:#000000;stroke-width:15;stroke-linecap:round;stroke-linejoin:round;stroke-miterlimit:10;stroke-dasharray:none;stroke-opacity:1"
         id="path589" /></g><g
       id="g591"><g
         id="g593"
         clip-path="url(#clipPath597)"><g
           id="g599"
           transform="translate(478.874,145.2329)"><path
             d="m 0,0 v -107.733 c 0,-16.568 -13.432,-30 -30,-30 h -385.748 c -16.568,0 -30,13.432 -30,30 V -81"
             style="fill:none;stroke:#000000;stroke-width:15;stroke-linecap:round;stroke-linejoin:round;stroke-miterlimit:10;stroke-dasharray:none;stroke-opacity:1"
             id="path601" /></g><g
           id="g603"
           transform="translate(33.126,115.7969)"><path
             d="m 0,0 v 324.379 c 0,16.596 13.454,30.05 30.051,30.05 h 385.646 c 16.597,0 30.051,-13.454 30.051,-30.05 V 33.317 c 0,-7.97 -3.166,-15.613 -8.802,-21.249 l -81.563,-81.563 c -5.635,-5.636 -13.279,-8.802 -21.248,-8.802 H 30.051 C 13.454,-78.297 0,-64.843 0,-48.247 V -30"
             style="fill:none;stroke:#000000;stroke-width:15;stroke-linecap:round;stroke-linejoin:round;stroke-miterlimit:10;stroke-dasharray:none;stroke-opacity:1"
             id="path605" /></g><g
           id="g607"
           transform="translate(354.9463,37.5)"><path
             d="m 0,0 c 13.598,0 24.621,11.023 24.621,24.622 v 50.063 c 0,13.598 11.024,24.622 24.621,24.622 h 50.065 c 13.597,0 24.621,11.023 24.621,24.621"
             style="fill:none;stroke:#000000;stroke-width:15;stroke-linecap:round;stroke-linejoin:round;stroke-miterlimit:10;stroke-dasharray:none;stroke-opacity:1"
             id="path609" /></g><g
           id="g611"
           transform="translate(401.7568,363.0464)"><path
             d="M 0,0 H -368.631"
             style="fill:none;stroke:#000000;stroke-width:15;stroke-linecap:round;stroke-linejoin:round;stroke-miterlimit:10;stroke-dasharray:none;stroke-opacity:1"
             id="path613" /></g><g
           id="g615"
           transform="translate(478.874,363.0464)"><path
             d="M 0,0 H -47.117"
             style="fill:none;stroke:#000000;stroke-width:15;stroke-linecap:round;stroke-linejoin:round;stroke-miterlimit:10;stroke-dasharray:none;stroke-opacity:1"
             id="path617" /></g><g
           id="g619"
           transform="translate(118.0498,425.3672)"><path
             d="m 0,0 c -8.454,0 -15.307,6.853 -15.307,15.307 v 48.519 c 0,8.454 6.853,15.307 15.307,15.307 h 3.443 c 8.454,0 15.307,-6.853 15.307,-15.307 V 44.859"
             style="fill:none;stroke:#000000;stroke-width:15;stroke-linecap:round;stroke-linejoin:round;stroke-miterlimit:10;stroke-dasharray:none;stroke-opacity:1"
             id="path621" /></g><g
           id="g623"
           transform="translate(390.5068,425.3672)"><path
             d="m 0,0 c -8.454,0 -15.307,6.853 -15.307,15.307 v 48.519 c 0,8.454 6.853,15.307 15.307,15.307 h 3.443 c 8.454,0 15.307,-6.853 15.307,-15.307 V 44.859"
             style="fill:none;stroke:#000000;stroke-width:15;stroke-linecap:round;stroke-linejoin:round;stroke-miterlimit:10;stroke-dasharray:none;stroke-opacity:1"
             id="path625" /></g></g></g></g></svg>
