<?xml version="1.0" encoding="UTF-8"?>
<svg xmlns="http://www.w3.org/2000/svg" viewBox="0 0 512 512" width="512" height="512"><g id="Layer_22" data-name="Layer 22"><path d="M472,8H88a8,8,0,0,0,0,16H472a16.018,16.018,0,0,1,16,16V440a8,8,0,1,0,16,0V40A32.033,32.033,0,0,0,472,8Z"/><path d="M496,464a8,8,0,0,0-8,8v16H440V120a8,8,0,0,0-8-8H80a8,8,0,0,0-8,8V488H24V40A16.018,16.018,0,0,1,40,24H56A8,8,0,0,0,56,8H40A32.033,32.033,0,0,0,8,40V496a8,8,0,0,0,8,8H80a8,8,0,0,0,8-8v-8H424v8a8,8,0,0,0,8,8h64a8,8,0,0,0,8-8V472A8,8,0,0,0,496,464ZM318.477,343.4a8,8,0,0,0-15.954,1.2l1.469,19.586a3.461,3.461,0,0,1-.93,2.609,3.8,3.8,0,0,1-2.808,1.2H288.512a8,8,0,0,0-8,8v96H264V376a8,8,0,0,0-16,0v96H231.488V387.551A19.671,19.671,0,0,0,211.746,368a3.8,3.8,0,0,1-2.808-1.2,3.461,3.461,0,0,1-.93-2.609L213.785,287A16.254,16.254,0,0,1,230.141,272h51.718a16.276,16.276,0,0,1,16.364,15.093l1.906,25.5a8,8,0,1,0,15.953-1.187l-1.9-25.414A32.284,32.284,0,0,0,281.859,256H230.141A32.261,32.261,0,0,0,197.824,285.9L192.055,363a19.5,19.5,0,0,0,5.156,14.679A19.886,19.886,0,0,0,211.746,384a3.655,3.655,0,0,1,3.742,3.554V472H136V128H376V472H296.512V384h3.742a19.886,19.886,0,0,0,14.535-6.321,19.5,19.5,0,0,0,5.156-14.687ZM88,128h32V472H88ZM392,472V128h32V472Z"/><path d="M144,96h80a8,8,0,0,0,5.656-13.657l-40-40a8,8,0,0,0-11.312,0l-40,40A8,8,0,0,0,144,96Zm40-36.688L204.688,80H163.312Z"/><path d="M328,96a7.975,7.975,0,0,0,5.656-2.344l40-40A8,8,0,0,0,368,40H288a8,8,0,0,0-5.656,13.656l40,40A7.975,7.975,0,0,0,328,96Zm20.688-40L328,76.684,307.312,56Z"/><path d="M256,176a32,32,0,1,0,32,32A32.033,32.033,0,0,0,256,176Zm0,48a16,16,0,1,1,16-16A16.019,16.019,0,0,1,256,224Z"/></g></svg>
