<?xml version="1.0" encoding="iso-8859-1"?>
<!-- Generator: Adobe Illustrator 19.0.0, SVG Export Plug-In . SVG Version: 6.00 Build 0)  -->
<svg version="1.1" id="Capa_1" xmlns="http://www.w3.org/2000/svg" xmlns:xlink="http://www.w3.org/1999/xlink" x="0px" y="0px"
	 viewBox="0 0 512.009 512.009" style="enable-background:new 0 0 512.009 512.009;" xml:space="preserve">
<g>
	<g>
		<g>
			<path d="M111.287,221.775c-3.088,25.168-26.322,40.291-26.908,40.663c-7.659,4.766-10.028,14.821-5.298,22.497
				c3.097,5.023,8.466,7.801,13.969,7.801c2.929,0,5.893-0.79,8.582-2.432c1.5-0.932,36.856-23.127,42.128-64.065
				c3.869-30.04-9.212-61.013-38.879-92.065C85.95,114.393,76.969,94.754,78.211,75.798c1.802-27.609,24.787-46.387,24.946-46.512
				c7.117-5.6,8.342-15.894,2.751-23.012c-5.591-7.109-15.903-8.342-23.003-2.751c-1.402,1.1-34.389,27.502-37.371,69.683
				c-2.023,28.647,9.975,56.788,35.649,83.616C103.575,180.251,113.701,202.109,111.287,221.775z"/>
			<path d="M236.898,221.775c-3.097,25.213-26.402,40.344-26.917,40.663c-7.65,4.766-10.019,14.821-5.289,22.497
				c3.097,5.023,8.466,7.801,13.969,7.801c2.929,0,5.893-0.79,8.573-2.432c1.5-0.932,36.856-23.127,42.128-64.074
				c3.869-30.031-9.203-61.004-38.879-92.056c-18.921-19.781-27.893-39.421-26.659-58.377c1.802-27.609,24.787-46.387,24.946-46.52
				c7.109-5.6,8.333-15.894,2.742-23.012c-5.591-7.109-15.894-8.342-23.003-2.751c-1.402,1.109-34.38,27.511-37.353,69.692
				c-2.023,28.647,9.966,56.779,35.64,83.616C229.186,180.251,239.311,202.1,236.898,221.775z"/>
			<path d="M362.508,221.775c-3.088,25.159-26.349,40.282-26.934,40.663c-7.65,4.757-10.019,14.812-5.298,22.497
				c3.088,5.023,8.466,7.801,13.969,7.801c2.92,0,5.893-0.79,8.564-2.432c1.5-0.932,36.874-23.127,42.154-64.074
				c3.86-30.04-9.221-61.004-38.897-92.047c-18.921-19.79-27.884-39.43-26.641-58.395c1.81-27.609,24.769-46.378,24.929-46.52
				c7.117-5.6,8.342-15.894,2.742-23.003c-5.591-7.109-15.885-8.351-23.003-2.742c-1.402,1.1-34.353,27.502-37.335,69.674
				c-2.006,28.647,9.966,56.788,35.622,83.625C354.796,180.251,364.922,202.1,362.508,221.775z"/>
			<path d="M495.618,479.262H45.482c-11.475,0-12.717-8.395-12.717-12.007c0-3.612,1.242-11.998,12.717-11.998h349.8
				c29.535,0,45.482-23.056,45.482-44.746c0-21.698-15.948-44.763-45.482-44.763h-349.8c-11.475,0-12.717-8.386-12.717-11.998
				s1.242-12.007,12.717-12.007h450.135c9.052,0,16.391-7.33,16.391-16.382c0-9.052-7.339-16.382-16.391-16.382H45.482
				C15.939,308.977,0,332.033,0,353.74s15.939,44.754,45.482,44.745h349.8c11.475,0,12.717,8.395,12.717,12.007
				c0,3.612-1.242,11.99-12.717,11.99h-349.8C15.939,422.482,0,445.53,0,467.237C0,488.944,15.939,512,45.482,512h450.135
				c9.043,0,16.391-7.304,16.391-16.356C512.009,486.592,504.67,479.262,495.618,479.262z"/>
		</g>
	</g>
</g>
<g>
</g>
<g>
</g>
<g>
</g>
<g>
</g>
<g>
</g>
<g>
</g>
<g>
</g>
<g>
</g>
<g>
</g>
<g>
</g>
<g>
</g>
<g>
</g>
<g>
</g>
<g>
</g>
<g>
</g>
</svg>
